<svg width="166" height="34" viewBox="0 0 166 34" fill="none" xmlns="http://www.w3.org/2000/svg">
<path d="M6.44944 33.5517H0V1.412H6.44944V17.4819L18.4494 1.412H25.7753L15.5955 14.9717L25.7753 33.5517H18.4494L11.3708 20.5524L6.44944 27.1193V33.5517Z" fill="#609EB1"/>
<path d="M49.8876 33.5517H48.4045L46.0225 30.2571C45.4382 30.78 44.8165 31.2731 44.1573 31.7363C43.5131 32.1846 42.8315 32.5805 42.1124 32.9242C41.3933 33.2529 40.6517 33.5144 39.8876 33.7086C39.1386 33.9029 38.3745 34 37.5955 34C35.9026 34 34.3071 33.7161 32.809 33.1483C31.3258 32.5805 30.0225 31.7587 28.8989 30.6829C27.7903 29.5922 26.9139 28.2624 26.2697 26.6935C25.6255 25.1246 25.3034 23.339 25.3034 21.3368C25.3034 19.4691 25.6255 17.7583 26.2697 16.2044C26.9139 14.6355 27.7903 13.2907 28.8989 12.1701C30.0225 11.0494 31.3258 10.1828 32.809 9.5702C34.3071 8.94265 35.9026 8.62887 37.5955 8.62887C38.3745 8.62887 39.1461 8.72599 39.9101 8.92024C40.6742 9.11448 41.4157 9.38343 42.1348 9.72709C42.8539 10.0708 43.5356 10.4742 44.1798 10.9374C44.839 11.4006 45.4532 11.9011 46.0225 12.439L48.4045 9.59262H49.8876V33.5517ZM43.7079 21.3368C43.7079 20.5001 43.5431 19.6933 43.2135 18.9163C42.8989 18.1244 42.4644 17.4296 41.9101 16.8319C41.3558 16.2193 40.7041 15.7337 39.9551 15.3751C39.221 15.0015 38.4345 14.8148 37.5955 14.8148C36.7566 14.8148 35.9625 14.9567 35.2135 15.2406C34.4794 15.5245 33.8352 15.9429 33.2809 16.4957C32.7416 17.0486 32.3146 17.7359 32 18.5577C31.6854 19.3645 31.5281 20.2909 31.5281 21.3368C31.5281 22.3828 31.6854 23.3166 32 24.1384C32.3146 24.9453 32.7416 25.6251 33.2809 26.178C33.8352 26.7308 34.4794 27.1492 35.2135 27.4331C35.9625 27.717 36.7566 27.8589 37.5955 27.8589C38.4345 27.8589 39.221 27.6796 39.9551 27.321C40.7041 26.9475 41.3558 26.4619 41.9101 25.8642C42.4644 25.2516 42.8989 24.5568 43.2135 23.7798C43.5431 22.9879 43.7079 22.1736 43.7079 21.3368Z" fill="#609EB1"/>
<path d="M78.6742 21.3368C78.6742 23.2195 78.3521 24.9378 77.7079 26.4918C77.0637 28.0457 76.1873 29.383 75.0787 30.5036C73.97 31.6093 72.6667 32.4685 71.1685 33.0811C69.6854 33.6937 68.0899 34 66.382 34C64.6891 34 63.0936 33.6862 61.5955 33.0587C60.1124 32.4311 58.809 31.557 57.6854 30.4364C56.5768 29.3158 55.7004 27.9859 55.0562 26.4469C54.412 24.893 54.0899 23.1896 54.0899 21.3368V0H60.2472V11.2063C60.5768 10.788 60.9738 10.4144 61.4382 10.0857C61.9176 9.75698 62.427 9.48802 62.9663 9.27884C63.5206 9.06966 64.0899 8.91277 64.6742 8.80817C65.2584 8.68864 65.8277 8.62887 66.382 8.62887C68.0899 8.62887 69.6854 8.95012 71.1685 9.59262C72.6667 10.2202 73.97 11.1017 75.0787 12.2373C76.1873 13.3729 77.0637 14.7176 77.7079 16.2716C78.3521 17.8106 78.6742 19.499 78.6742 21.3368ZM72.4944 21.3368C72.4944 20.4105 72.3296 19.5513 72 18.7594C71.6854 17.9525 71.2509 17.2577 70.6966 16.675C70.1423 16.0923 69.4906 15.6366 68.7416 15.3078C68.0075 14.9791 67.221 14.8148 66.382 14.8148C65.5431 14.8148 64.7491 15.0015 64 15.3751C63.2659 15.7337 62.6217 16.2193 62.0674 16.8319C61.5131 17.4296 61.0787 18.1244 60.764 18.9163C60.4494 19.6933 60.2921 20.5001 60.2921 21.3368C60.2921 22.2632 60.4494 23.1224 60.764 23.9143C61.0787 24.7062 61.5131 25.3935 62.0674 25.9763C62.6217 26.559 63.2659 27.0222 64 27.3659C64.7491 27.6946 65.5431 27.8589 66.382 27.8589C67.221 27.8589 68.0075 27.6946 68.7416 27.3659C69.4906 27.0222 70.1423 26.559 70.6966 25.9763C71.2509 25.3935 71.6854 24.7062 72 23.9143C72.3296 23.1224 72.4944 22.2632 72.4944 21.3368Z" fill="#609EB1"/>
<path d="M105.348 12.9216C105.348 14.7147 105.026 16.3881 104.382 17.9421C103.738 19.4811 102.861 20.8184 101.753 21.9539C100.644 23.0746 99.3408 23.9636 97.8427 24.6211C96.3596 25.2635 94.764 25.5848 93.0562 25.5848C91.3633 25.5848 89.7678 25.2635 88.2697 24.6211C86.7865 23.9636 85.4831 23.0746 84.3596 21.9539C83.2509 20.8184 82.3745 19.4811 81.7303 17.9421C81.0861 16.3881 80.764 14.7147 80.764 12.9216C80.764 11.0987 81.0861 9.41033 81.7303 7.85638C82.3745 6.30244 83.2509 4.96515 84.3596 3.84452C85.4831 2.70894 86.7865 1.81991 88.2697 1.17741C89.7678 0.534915 91.3633 0.213667 93.0562 0.213667C94.764 0.213667 96.3596 0.519974 97.8427 1.13259C99.3408 1.73026 100.644 2.58941 101.753 3.71004C102.861 4.81573 103.738 6.15302 104.382 7.72191C105.026 9.27585 105.348 11.0091 105.348 12.9216ZM99.1685 12.9216C99.1685 11.9355 99.0037 11.0465 98.6742 10.2545C98.3596 9.44768 97.9251 8.76036 97.3708 8.19257C96.8165 7.60984 96.1648 7.16906 95.4157 6.87023C94.6816 6.55645 93.8951 6.39956 93.0562 6.39956C92.2172 6.39956 91.4232 6.55645 90.6742 6.87023C89.9401 7.16906 89.2959 7.60984 88.7416 8.19257C88.2022 8.76036 87.7753 9.44768 87.4607 10.2545C87.1461 11.0465 86.9888 11.9355 86.9888 12.9216C86.9888 13.848 87.1461 14.7072 87.4607 15.4991C87.7753 16.291 88.2022 16.9783 88.7416 17.5611C89.2959 18.1438 89.9401 18.607 90.6742 18.9506C91.4232 19.2794 92.2172 19.4437 93.0562 19.4437C93.8951 19.4437 94.6816 19.2868 95.4157 18.9731C96.1648 18.6593 96.8165 18.2185 97.3708 17.6507C97.9251 17.0829 98.3596 16.3956 98.6742 15.5888C99.0037 14.7819 99.1685 13.8929 99.1685 12.9216Z" fill="#609EB1"/>
<path d="M132 21.3368C132 23.1299 131.678 24.8033 131.034 26.3573C130.39 27.8963 129.513 29.2336 128.404 30.3692C127.296 31.4898 125.993 32.3788 124.494 33.0363C123.011 33.6788 121.416 34 119.708 34C118.015 34 116.419 33.6788 114.921 33.0363C113.438 32.3788 112.135 31.4898 111.011 30.3692C109.903 29.2336 109.026 27.8963 108.382 26.3573C107.738 24.8033 107.416 23.1299 107.416 21.3368C107.416 19.514 107.738 17.8255 108.382 16.2716C109.026 14.7176 109.903 13.3804 111.011 12.2597C112.135 11.1241 113.438 10.2351 114.921 9.59262C116.419 8.95012 118.015 8.62887 119.708 8.62887C121.416 8.62887 123.011 8.93518 124.494 9.54779C125.993 10.1455 127.296 11.0046 128.404 12.1252C129.513 13.2309 130.39 14.5682 131.034 16.1371C131.678 17.6911 132 19.4243 132 21.3368ZM125.82 21.3368C125.82 20.3507 125.655 19.4617 125.326 18.6697C125.011 17.8629 124.577 17.1756 124.022 16.6078C123.468 16.025 122.816 15.5843 122.067 15.2854C121.333 14.9717 120.547 14.8148 119.708 14.8148C118.869 14.8148 118.075 14.9717 117.326 15.2854C116.592 15.5843 115.948 16.025 115.393 16.6078C114.854 17.1756 114.427 17.8629 114.112 18.6697C113.798 19.4617 113.64 20.3507 113.64 21.3368C113.64 22.2632 113.798 23.1224 114.112 23.9143C114.427 24.7062 114.854 25.3935 115.393 25.9763C115.948 26.559 116.592 27.0222 117.326 27.3659C118.075 27.6946 118.869 27.8589 119.708 27.8589C120.547 27.8589 121.333 27.702 122.067 27.3883C122.816 27.0745 123.468 26.6337 124.022 26.0659C124.577 25.4981 125.011 24.8108 125.326 24.004C125.655 23.1971 125.82 22.3081 125.82 21.3368Z" fill="#609EB1"/>
<path d="M166 33.5517H159.888V18.3111C159.888 17.8928 159.805 17.4968 159.64 17.1233C159.491 16.7497 159.273 16.421 158.989 16.1371C158.704 15.8532 158.375 15.6366 158 15.4871C157.625 15.3228 157.228 15.2406 156.809 15.2406C156.39 15.2406 155.993 15.3228 155.618 15.4871C155.258 15.6366 154.936 15.8532 154.652 16.1371C154.382 16.421 154.165 16.7497 154 17.1233C153.85 17.4968 153.775 17.8928 153.775 18.3111V33.5517H147.64V18.3111C147.64 17.8928 147.558 17.4968 147.393 17.1233C147.243 16.7497 147.026 16.421 146.742 16.1371C146.457 15.8532 146.127 15.6366 145.753 15.4871C145.378 15.3228 144.981 15.2406 144.562 15.2406C144.142 15.2406 143.745 15.3228 143.371 15.4871C143.011 15.6366 142.689 15.8532 142.404 16.1371C142.135 16.421 141.918 16.7497 141.753 17.1233C141.603 17.4968 141.528 17.8928 141.528 18.3111V33.5517H135.393V9.54779H136.876L138.539 11.3856C139.393 10.6684 140.33 10.1156 141.348 9.72709C142.382 9.32367 143.453 9.12195 144.562 9.12195C145.685 9.12195 146.779 9.33114 147.843 9.74951C148.921 10.1679 149.865 10.8926 150.674 11.9235C151.049 11.4155 151.476 10.9822 151.955 10.6236C152.434 10.265 152.936 9.97363 153.461 9.74951C154 9.52538 154.554 9.36849 155.124 9.27884C155.693 9.17425 156.255 9.12195 156.809 9.12195C158.082 9.12195 159.273 9.36102 160.382 9.83916C161.506 10.3173 162.479 10.9747 163.303 11.8115C164.142 12.6333 164.801 13.6045 165.281 14.7251C165.76 15.8457 166 17.0411 166 18.3111V33.5517Z" fill="#609EB1"/>
</svg>
